<svg width="18" height="21" viewBox="0 0 18 21" fill="none" xmlns="http://www.w3.org/2000/svg">
<path fill-rule="evenodd" clip-rule="evenodd" d="M9.59317 20.258L9.58217 20.26L9.51117 20.295L9.49117 20.299L9.47717 20.295L9.40617 20.26C9.39551 20.2567 9.3875 20.2583 9.38217 20.265L9.37817 20.275L9.36117 20.703L9.36617 20.723L9.37617 20.736L9.48017 20.81L9.49517 20.814L9.50717 20.81L9.61117 20.736L9.62317 20.72L9.62717 20.703L9.61017 20.276C9.6075 20.2653 9.60184 20.2593 9.59317 20.258ZM9.85817 20.145L9.84517 20.147L9.66017 20.24L9.65017 20.25L9.64717 20.261L9.66517 20.691L9.67017 20.703L9.67817 20.71L9.87917 20.803C9.89184 20.8063 9.9015 20.8037 9.90817 20.795L9.91217 20.781L9.87817 20.167C9.87484 20.155 9.86817 20.1477 9.85817 20.145ZM9.14317 20.147C9.13876 20.1443 9.1335 20.1435 9.12847 20.1446C9.12344 20.1457 9.11903 20.1487 9.11617 20.153L9.11017 20.167L9.07617 20.781C9.07684 20.793 9.08251 20.801 9.09317 20.805L9.10817 20.803L9.30917 20.71L9.31917 20.702L9.32317 20.691L9.34017 20.261L9.33717 20.249L9.32717 20.239L9.14317 20.147Z" fill="#5A4F41"/>
<path fill-rule="evenodd" clip-rule="evenodd" d="M13 0C14.3261 0 15.5979 0.526784 16.5355 1.46447C17.4732 2.40215 18 3.67392 18 5V13C18 14.3261 17.4732 15.5979 16.5355 16.5355C15.5979 17.4732 14.3261 18 13 18H5C3.67392 18 2.40215 17.4732 1.46447 16.5355C0.526784 15.5979 0 14.3261 0 13V5C0 3.67392 0.526784 2.40215 1.46447 1.46447C2.40215 0.526784 3.67392 0 5 0H13ZM13 2H5C4.20435 2 3.44129 2.31607 2.87868 2.87868C2.31607 3.44129 2 4.20435 2 5V13C2 13.7956 2.31607 14.5587 2.87868 15.1213C3.44129 15.6839 4.20435 16 5 16H13C13.7956 16 14.5587 15.6839 15.1213 15.1213C15.6839 14.5587 16 13.7956 16 13V5C16 4.20435 15.6839 3.44129 15.1213 2.87868C14.5587 2.31607 13.7956 2 13 2ZM9 5C10.0609 5 11.0783 5.42143 11.8284 6.17157C12.5786 6.92172 13 7.93913 13 9C13 10.0609 12.5786 11.0783 11.8284 11.8284C11.0783 12.5786 10.0609 13 9 13C7.93913 13 6.92172 12.5786 6.17157 11.8284C5.42143 11.0783 5 10.0609 5 9C5 7.93913 5.42143 6.92172 6.17157 6.17157C6.92172 5.42143 7.93913 5 9 5ZM9 7C8.46957 7 7.96086 7.21071 7.58579 7.58579C7.21071 7.96086 7 8.46957 7 9C7 9.53043 7.21071 10.0391 7.58579 10.4142C7.96086 10.7893 8.46957 11 9 11C9.53043 11 10.0391 10.7893 10.4142 10.4142C10.7893 10.0391 11 9.53043 11 9C11 8.46957 10.7893 7.96086 10.4142 7.58579C10.0391 7.21071 9.53043 7 9 7ZM13.5 3.5C13.7652 3.5 14.0196 3.60536 14.2071 3.79289C14.3946 3.98043 14.5 4.23478 14.5 4.5C14.5 4.76522 14.3946 5.01957 14.2071 5.20711C14.0196 5.39464 13.7652 5.5 13.5 5.5C13.2348 5.5 12.9804 5.39464 12.7929 5.20711C12.6054 5.01957 12.5 4.76522 12.5 4.5C12.5 4.23478 12.6054 3.98043 12.7929 3.79289C12.9804 3.60536 13.2348 3.5 13.5 3.5Z" fill="#5A4F41"/>
</svg>
