<svg width="40" height="40" viewBox="0 0 40 40" fill="none" xmlns="http://www.w3.org/2000/svg">
<path d="M20.8127 27.2935C18.6312 38.5864 22.7582 34.9667 27.1945 33.9431C33.9486 31.786 35.6455 21.5957 36.0997 16.2139C33.6987 17.1004 22.732 17.3585 20.8127 27.2935Z" fill="#4A351B"/>
<path d="M11.8159 34.6886C21.2417 39.0566 18.8054 33.8209 18.6741 28.6819C17.955 20.756 9.40309 17.1185 4.81113 15.6919C5.17065 18.5299 3.52343 30.8459 11.8159 34.6886Z" fill="#4A351B"/>
<path d="M24.0286 5.2557C18.8053 -4.09292 17.9826 1.42483 15.3685 5.38994C11.7498 11.8371 16.6609 20.0731 19.5766 24.0977C20.7908 21.7238 28.6237 13.4802 24.0286 5.2557Z" fill="#4A351B"/>
</svg>
