<svg width="44" height="43" viewBox="0 0 44 43" fill="none" xmlns="http://www.w3.org/2000/svg">
<path d="M10.1823 28.8949C12.4679 28.8949 14.3159 26.1039 14.3159 22.6518C14.3159 19.1997 12.4679 16.4087 10.1823 16.4087C7.89671 16.4087 6.04877 19.1997 6.04877 22.6518C6.00014 26.1039 7.89671 28.8949 10.1823 28.8949Z" fill="#293E27"/>
<path d="M41.3555 0.25H10.2323C9.16245 0.25 8.28711 1.57207 8.28711 3.18793V13.8379C8.82204 13.6176 9.45423 13.4707 10.0378 13.4707C10.4268 13.4707 10.8159 13.5441 11.2049 13.6176V4.6569H40.3829V32.5672H23.8973L21.1254 36.9741H41.3555C42.4254 36.9741 43.3007 35.6521 43.3007 34.0362V3.18793C43.3007 1.57207 42.4254 0.25 41.3555 0.25Z" fill="#293E27"/>
<path d="M25.9878 21.6234C25.3556 20.1545 24.0912 19.7872 23.1186 20.6686C22.9241 20.8155 22.8268 21.1093 22.7296 21.2562L15.6296 32.4203C14.9488 31.9062 14.2193 31.4655 13.4899 31.0982C12.3714 30.8045 11.2043 30.4372 10.0858 30.4372C8.96729 30.4372 7.80017 30.731 6.68168 31.2451C5.02826 31.9062 3.56937 33.1548 2.35362 34.6972C2.06184 35.1379 1.81869 35.7989 1.72143 36.3865L0.700195 42.85H15.2406V42.7765L19.3741 35.5051L25.7446 25.3693C26.3282 24.4879 26.5227 22.7986 25.9878 21.6234Z" fill="#293E27"/>
</svg>
