<svg width="44" height="44" viewBox="0 0 44 44" fill="none" xmlns="http://www.w3.org/2000/svg">
<path d="M21.7746 26.0351C22.1959 26.0351 22.6077 25.9102 22.958 25.6761C23.3083 25.4421 23.5813 25.1094 23.7425 24.7202C23.9037 24.331 23.9459 23.9027 23.8637 23.4896C23.7815 23.0764 23.5786 22.6968 23.2807 22.399C22.9829 22.1011 22.6033 21.8982 22.1902 21.816C21.777 21.7338 21.3487 21.776 20.9595 21.9372C20.5703 22.0984 20.2376 22.3715 20.0036 22.7217C19.7695 23.072 19.6446 23.4838 19.6446 23.9051C19.6446 24.47 19.869 25.0118 20.2685 25.4112C20.6679 25.8107 21.2097 26.0351 21.7746 26.0351ZM32.4246 26.0351C32.8459 26.0351 33.2577 25.9102 33.608 25.6761C33.9582 25.4421 34.2313 25.1094 34.3925 24.7202C34.5537 24.331 34.5959 23.9027 34.5137 23.4896C34.4315 23.0764 34.2286 22.6968 33.9307 22.399C33.6329 22.1011 33.2533 21.8982 32.8402 21.816C32.427 21.7338 31.9987 21.776 31.6095 21.9372C31.2203 22.0984 30.8876 22.3715 30.6536 22.7217C30.4195 23.072 30.2946 23.4838 30.2946 23.9051C30.2946 24.47 30.519 25.0118 30.9185 25.4112C31.3179 25.8107 31.8597 26.0351 32.4246 26.0351ZM21.7746 34.5551C22.1959 34.5551 22.6077 34.4302 22.958 34.1961C23.3083 33.9621 23.5813 33.6294 23.7425 33.2402C23.9037 32.851 23.9459 32.4227 23.8637 32.0096C23.7815 31.5964 23.5786 31.2168 23.2807 30.919C22.9829 30.6211 22.6033 30.4182 22.1902 30.336C21.777 30.2538 21.3487 30.296 20.9595 30.4572C20.5703 30.6184 20.2376 30.8915 20.0036 31.2417C19.7695 31.592 19.6446 32.0038 19.6446 32.4251C19.6446 32.99 19.869 33.5318 20.2685 33.9312C20.6679 34.3307 21.2097 34.5551 21.7746 34.5551ZM32.4246 34.5551C32.8459 34.5551 33.2577 34.4302 33.608 34.1961C33.9582 33.9621 34.2313 33.6294 34.3925 33.2402C34.5537 32.851 34.5959 32.4227 34.5137 32.0096C34.4315 31.5964 34.2286 31.2168 33.9307 30.919C33.6329 30.6211 33.2533 30.4182 32.8402 30.336C32.427 30.2538 31.9987 30.296 31.6095 30.4572C31.2203 30.6184 30.8876 30.8915 30.6536 31.2417C30.4195 31.592 30.2946 32.0038 30.2946 32.4251C30.2946 32.99 30.519 33.5318 30.9185 33.9312C31.3179 34.3307 31.8597 34.5551 32.4246 34.5551ZM11.1246 26.0351C11.5459 26.0351 11.9577 25.9102 12.308 25.6761C12.6582 25.4421 12.9313 25.1094 13.0925 24.7202C13.2537 24.331 13.2959 23.9027 13.2137 23.4896C13.1315 23.0764 12.9286 22.6968 12.6307 22.399C12.3329 22.1011 11.9533 21.8982 11.5402 21.816C11.127 21.7338 10.6987 21.776 10.3095 21.9372C9.92029 22.0984 9.58763 22.3715 9.35358 22.7217C9.11953 23.072 8.99461 23.4838 8.99461 23.9051C8.99461 24.47 9.21902 25.0118 9.61847 25.4112C10.0179 25.8107 10.5597 26.0351 11.1246 26.0351ZM36.6846 4.7351H34.5546V2.6051C34.5546 2.04019 34.3302 1.49841 33.9307 1.09896C33.5313 0.699508 32.9895 0.475098 32.4246 0.475098C31.8597 0.475098 31.3179 0.699508 30.9185 1.09896C30.519 1.49841 30.2946 2.04019 30.2946 2.6051V4.7351H13.2546V2.6051C13.2546 2.04019 13.0302 1.49841 12.6307 1.09896C12.2313 0.699508 11.6895 0.475098 11.1246 0.475098C10.5597 0.475098 10.0179 0.699508 9.61847 1.09896C9.21902 1.49841 8.99461 2.04019 8.99461 2.6051V4.7351H6.86461C5.16988 4.7351 3.54455 5.40833 2.3462 6.60669C1.14784 7.80504 0.474609 9.43036 0.474609 11.1251V36.6851C0.474609 38.3798 1.14784 40.0051 2.3462 41.2035C3.54455 42.4019 5.16988 43.0751 6.86461 43.0751H36.6846C38.3793 43.0751 40.0047 42.4019 41.203 41.2035C42.4014 40.0051 43.0746 38.3798 43.0746 36.6851V11.1251C43.0746 9.43036 42.4014 7.80504 41.203 6.60669C40.0047 5.40833 38.3793 4.7351 36.6846 4.7351ZM38.8146 36.6851C38.8146 37.25 38.5902 37.7918 38.1907 38.1912C37.7913 38.5907 37.2495 38.8151 36.6846 38.8151H6.86461C6.2997 38.8151 5.75792 38.5907 5.35847 38.1912C4.95902 37.7918 4.73461 37.25 4.73461 36.6851V17.5151H38.8146V36.6851ZM38.8146 13.2551H4.73461V11.1251C4.73461 10.5602 4.95902 10.0184 5.35847 9.61896C5.75792 9.21951 6.2997 8.9951 6.86461 8.9951H36.6846C37.2495 8.9951 37.7913 9.21951 38.1907 9.61896C38.5902 10.0184 38.8146 10.5602 38.8146 11.1251V13.2551ZM11.1246 34.5551C11.5459 34.5551 11.9577 34.4302 12.308 34.1961C12.6582 33.9621 12.9313 33.6294 13.0925 33.2402C13.2537 32.851 13.2959 32.4227 13.2137 32.0096C13.1315 31.5964 12.9286 31.2168 12.6307 30.919C12.3329 30.6211 11.9533 30.4182 11.5402 30.336C11.127 30.2538 10.6987 30.296 10.3095 30.4572C9.92029 30.6184 9.58763 30.8915 9.35358 31.2417C9.11953 31.592 8.99461 32.0038 8.99461 32.4251C8.99461 32.99 9.21902 33.5318 9.61847 33.9312C10.0179 34.3307 10.5597 34.5551 11.1246 34.5551Z" fill="#293E27"/>
</svg>
