<svg width="44" height="44" viewBox="0 0 44 44" fill="none" xmlns="http://www.w3.org/2000/svg">
<path d="M22.0012 10.9055C25.1904 10.9055 27.7758 8.62092 27.7758 5.80273C27.7758 2.98454 25.1904 0.699951 22.0012 0.699951C18.812 0.699951 16.2266 2.98454 16.2266 5.80273C16.2266 8.62092 18.812 10.9055 22.0012 10.9055Z" fill="#293E27"/>
<path d="M43.3002 28.5793L34.9597 25.2748L32.5486 17.4562L32.1857 16.0662H32.1715C32.0077 15.4891 31.5164 15.0281 30.8643 14.87L30.6763 14.8075L29.3176 14.2947C29.0254 14.1821 28.6483 14.074 28.1388 13.974C21.5554 12.6483 16.0557 13.974 16.0557 13.974C15.0225 14.1696 13.2776 15.1041 13.2776 15.1041L13.1249 15.1666L13.1351 15.1836C12.666 15.4042 12.298 15.7651 12.1433 16.2216H12.1443L12.114 16.3136C12.1109 16.3324 12.0998 16.3512 12.0958 16.3699L9.534 24.1545L9.05278 25.3284L0.700195 28.5757L2.47949 32.1491L5.0524 31.1476L3.90697 33.4301L15.708 38.0451L13.2422 39.0117L15.2116 42.9424L21.7161 40.3946L29.1376 43.2998L31.11 39.3691L27.7212 38.0451L40.4452 33.071L39.3888 30.9636L41.6432 31.8552L43.3002 28.5793ZM10.0102 31.111L7.58385 30.1623L12.5992 28.213L12.581 28.1764L14.881 22.5903L16.0567 29.2162L10.0102 31.111ZM34.5786 30.6554L28.1398 29.2162L29.1386 23.0602L29.1902 22.3687L31.7338 27.8503L31.7004 27.9128L31.7712 27.9423L31.7853 27.9628L31.8015 27.9539L36.6177 29.8594L34.5786 30.6554Z" fill="#293E27"/>
</svg>
